<svg xmlns="http://www.w3.org/2000/svg" xmlns:xlink="http://www.w3.org/1999/xlink" viewBox="0 0 81 82" fill="#fff" fill-rule="evenodd" stroke="#000" stroke-linecap="round" stroke-linejoin="round"><use xlink:href="#A" x=".5" y=".5"/><symbol id="A" overflow="visible"><path d="M1.333 0C.533 0 0 .533 0 1.333v16c0 .8.533 1.333 1.333 1.333h8c.8 0 1.333-.533 1.333-1.333v-6.666h58.667v6.667c0 .8.533 1.333 1.6 1.333h7.733c.8 0 1.333-.533 1.333-1.333v-8-8C80 .533 79.467 0 78.667 0h0H1.333zm77.334 80c.8 0 1.333-.533 1.333-1.333V62.934c0-.8-.533-1.333-1.333-1.333h-7.733c-.8 0-1.333.533-1.333 1.333v6.4H10.667v-6.667c0-.8-.533-1.333-1.6-1.333H1.333c-.8 0-1.333.533-1.333 1.6v15.733C0 79.467.533 80 1.333 80h77.334z" fill="#0072c6" stroke="none"/><path d="M29.519 36.447l3.452-3.452 2.556 2.556-3.452 3.451zm5.007-5.008l3.456-3.456 2.56 2.56L37.086 34zm7.57-2.463l-2.56-2.544 3.424-3.424 2.56 2.544zM39.535 52.5l2.561-2.56 3.424 3.426-2.561 2.56zm-1.551-1.572l-3.456-3.456 2.56-2.544 3.456 3.456zm-5.008-5.008l-3.456-3.456 2.56-2.544 3.44 3.44z" stroke="none" fill="#b8d432"/><path d="M57.81 24.395a4.44 4.44 0 0 1-3.158 1.309 4.43 4.43 0 0 1-3.158-1.309l-6.053-6.053v12.306h18.424V18.342l-6.054 6.053zm-3.161.409a3.54 3.54 0 0 0 2.523-1.045l6.69-6.69v-.355H45.438v.355l6.69 6.69a3.54 3.54 0 0 0 2.522 1.045zm3.161 31.15a4.44 4.44 0 0 1-3.158 1.309 4.43 4.43 0 0 1-3.158-1.309l-6.053-6.053v12.306h18.424V49.901l-6.054 6.053zm-3.161.41a3.54 3.54 0 0 0 2.523-1.045l6.69-6.689v-.355H45.438v.355l6.69 6.689a3.54 3.54 0 0 0 2.522 1.045zM19.718 40.599c-1.344 1.344-3.133 2.085-5.035 2.085s-3.69-.741-5.035-2.085L0 30.949v19.613h29.366V30.949l-9.648 9.65zm-5.035.652a5.65 5.65 0 0 0 4.022-1.666l10.661-10.661v-.565H0v.566l10.661 10.661a5.66 5.66 0 0 0 4.022 1.664z" stroke="none" fill="#59b4d9"/></symbol></svg>