<?xml version="1.0" encoding="UTF-8"?> <svg xmlns="http://www.w3.org/2000/svg" width="160" height="157" viewBox="0 0 160 157" fill="none"><g clip-path="url(#clip0)"><path d="M79.8152 96.0739C88.6836 96.0739 95.7044 89.0531 95.7044 80.1848C95.7044 71.3164 88.6836 64.2956 79.8152 64.2956C70.9469 64.2956 63.9261 71.3164 63.9261 80.1848C63.9261 88.6836 71.3164 96.0739 79.8152 96.0739ZM101.247 156.305L105.681 154.827C110.115 153.349 114.919 151.501 118.984 148.915C111.594 144.85 107.159 137.46 107.159 128.961C107.159 123.418 109.376 118.245 113.441 113.072C113.441 113.072 113.441 113.072 113.811 112.702L114.919 111.224C116.028 109.746 117.136 108.637 118.245 107.159C121.94 101.986 124.896 96.0739 126.374 89.7922C127.852 82.7714 128.222 75.7506 126.744 68.7298C125.266 62.448 122.679 56.1663 118.984 50.9931C115.289 45.8199 110.855 41.3857 105.312 38.06C99.7691 34.7344 93.4873 32.1478 86.836 31.4088C84.6189 31.0393 82.4019 31.0393 80.1848 31.0393H79.4457C77.2286 31.0393 75.0116 31.0393 72.7945 31.4088C66.1432 32.5173 59.8614 34.7344 54.3187 38.06C49.1455 41.3857 44.3418 45.8199 40.6467 50.9931C36.9515 56.1663 33.9954 62.448 32.8868 68.7298C31.4088 75.7506 31.4088 82.7714 33.2564 89.4226C34.7344 95.7044 37.6905 101.617 41.3857 106.79L44.7113 110.855L45.8199 112.333C49.8845 117.136 52.1016 122.679 52.1016 128.222C52.1016 136.721 47.2979 144.111 40.2771 148.176C44.3418 150.393 49.1455 152.61 53.5797 154.088L58.3834 155.566C59.1224 154.827 62.448 152.61 65.4042 148.176C68.3603 144.111 71.6859 137.46 71.6859 128.222C71.6859 122.679 70.5774 117.506 68.3603 112.333C66.1432 107.159 63.1871 102.725 59.4919 98.6605L58.7529 97.552C57.2748 96.0739 55.7968 94.2263 54.6882 92.3788C53.2102 89.7922 52.1016 87.5751 51.7321 84.6189C50.6236 80.5543 50.6236 76.4896 51.7321 72.4249C52.4711 68.7298 53.9492 65.0346 56.1663 62.0785C58.3834 59.1224 60.97 56.5358 64.2956 54.3187C67.6212 52.1016 71.3164 50.9931 75.0115 50.254C76.4896 49.8845 77.5982 49.8845 79.0762 49.8845H79.8152C81.2933 49.8845 82.4019 49.8845 83.8799 50.254C87.5751 50.6236 91.2702 52.1016 94.5958 54.3187C97.9215 56.1663 100.508 58.7529 102.725 62.0785C104.942 65.0346 106.42 68.7298 107.159 72.4249C107.898 76.4896 107.898 80.5543 107.159 84.6189C106.42 87.2055 105.681 89.7922 104.203 92.3788C103.095 94.2263 101.617 96.0739 100.139 97.552L99.3995 98.6605C95.7044 102.725 92.7483 107.159 90.5312 112.333C88.3141 117.506 87.2055 122.679 87.2055 128.222C87.2055 137.46 90.5312 144.111 93.4873 148.176C96.8129 153.349 100.139 155.935 101.247 156.305ZM130.439 141.524C139.307 134.134 147.067 124.527 151.871 114.55C154.457 109.376 156.305 103.464 157.783 97.9215C159.261 92.0092 160 85.7275 160 79.8152C160 69.0993 157.783 58.3834 153.718 48.776C149.654 39.1686 143.741 30.6697 136.721 23.2794C129.33 15.8891 120.831 10.3464 111.224 6.28176C101.247 2.21709 90.9007 0 80.1848 0H79.8152C69.0993 0 58.3834 2.21709 48.776 6.28176C39.1686 10.3464 30.6697 16.2587 23.2794 23.2794C15.8891 30.6697 10.3464 39.1686 6.28176 48.776C2.21709 58.7529 0 69.0993 0 79.8152C0 86.097 0.73903 92.0092 2.21709 97.9215C3.69515 103.834 5.54273 109.376 8.12933 114.55C12.933 124.527 20.6928 134.134 29.5612 141.524C35.4734 138.199 38.4296 134.873 39.1686 131.178C39.9076 127.483 38.4296 123.788 34.3649 118.984C24.7575 107.898 19.5843 93.8568 19.5843 79.4457C19.5843 46.1894 46.5589 19.2148 79.8152 18.8453H80.1848H80.5543C113.811 18.8453 140.785 45.8199 140.785 79.4457C140.785 93.8568 135.612 108.268 126.005 118.984C121.94 123.788 120.462 127.483 121.201 131.178C121.57 134.873 124.896 138.568 130.439 141.524Z" fill="#EF424D"></path></g><defs><clipPath id="clip0"><rect width="160" height="156.305" fill="white"></rect></clipPath></defs></svg> 